<svg width="17" height="17" viewBox="0 0 17 17" fill="none" xmlns="http://www.w3.org/2000/svg">
<path fill-rule="evenodd" clip-rule="evenodd" d="M12.75 0C13.2194 0 13.6 0.380558 13.6 0.85V1.7H14.45C15.8583 1.7 17 2.84167 17 4.25V14.45C17 15.8583 15.8583 17 14.45 17H2.55C1.14167 17 0 15.8583 0 14.45V4.25C0 2.84167 1.14167 1.7 2.55 1.7H3.4V0.85C3.4 0.380558 3.78056 0 4.25 0C4.71944 0 5.1 0.380558 5.1 0.85V1.7H11.9V0.85C11.9 0.380558 12.2806 0 12.75 0ZM1.7 8.5V14.45C1.7 14.9194 2.08056 15.3 2.55 15.3H14.45C14.9194 15.3 15.3 14.9194 15.3 14.45V8.5H1.7ZM1.7 6.8H15.3V4.25C15.3 3.78056 14.9194 3.4 14.45 3.4H13.6V4.25C13.6 4.71944 13.2194 5.1 12.75 5.1C12.2806 5.1 11.9 4.71944 11.9 4.25V3.4H5.1V4.25C5.1 4.71944 4.71944 5.1 4.25 5.1C3.78056 5.1 3.4 4.71944 3.4 4.25V3.4H2.55C2.08056 3.4 1.7 3.78056 1.7 4.25V6.8Z" fill="#4885EB"/>
</svg>
