<svg width="17" height="17" viewBox="0 0 17 17" fill="none" xmlns="http://www.w3.org/2000/svg">
<path d="M1.71354 1.7L7.26781 8.58585C7.51094 8.88745 7.64331 9.26218 7.64312 9.64835V15.3L9.35688 14.025V9.6475C9.35689 9.26162 9.48924 8.88722 9.73219 8.58585L15.2865 1.7H1.7144H1.71354ZM1.71354 0H15.2865C15.6093 3.99506e-05 15.9256 0.0905451 16.1989 0.261091C16.4721 0.431637 16.6913 0.675286 16.831 0.963974C16.9708 1.25266 17.0256 1.57465 16.9889 1.89284C16.9523 2.21104 16.8258 2.5125 16.624 2.7625L11.0706 9.6475V14.025C11.0706 14.2889 11.0087 14.5492 10.8897 14.7853C10.7707 15.0213 10.598 15.2267 10.3851 15.385L8.67137 16.66C8.41676 16.8494 8.11401 16.9648 7.79703 16.9931C7.48005 17.0215 7.16137 16.9617 6.87671 16.8205C6.59205 16.6793 6.35264 16.4623 6.18532 16.1937C6.018 15.9252 5.92937 15.6157 5.92937 15.3V9.6475L0.375956 2.7625C0.174173 2.5125 0.0476858 2.21104 0.0110627 1.89284C-0.0255604 1.57465 0.0291706 1.25266 0.168952 0.963974C0.308733 0.675286 0.527878 0.431637 0.801145 0.261091C1.07441 0.0905451 1.39069 3.99506e-05 1.71354 0V0Z" fill="#4885EB"/>
</svg>
