<svg width="17" height="18" viewBox="0 0 17 18" fill="none" xmlns="http://www.w3.org/2000/svg">
<path d="M16.7688 14.7001L13.4582 11.3895C13.3088 11.2401 13.1062 11.1571 12.8937 11.1571H12.3525C13.2689 9.98491 13.8135 8.51058 13.8135 6.90676C13.8135 3.09144 10.7221 0 6.90676 0C3.09144 0 0 3.09144 0 6.90676C0 10.7221 3.09144 13.8135 6.90676 13.8135C8.51058 13.8135 9.98491 13.2689 11.1571 12.3525V12.8937C11.1571 13.1062 11.2401 13.3088 11.3895 13.4582L14.7001 16.7688C15.0122 17.0809 15.517 17.0809 15.8258 16.7688L16.7655 15.8291C17.0776 15.517 17.0776 15.0122 16.7688 14.7001ZM6.90676 11.1571C4.55912 11.1571 2.65644 9.25771 2.65644 6.90676C2.65644 4.55912 4.5558 2.65644 6.90676 2.65644C9.25439 2.65644 11.1571 4.5558 11.1571 6.90676C11.1571 9.25439 9.25771 11.1571 6.90676 11.1571Z" fill="#4885EB"/>
</svg>
