<svg width="15" height="11" viewBox="0 0 15 11" fill="none" xmlns="http://www.w3.org/2000/svg">
<path fill-rule="evenodd" clip-rule="evenodd" d="M8.40728 10.7339L8.46967 10.7986C8.74003 11.0465 9.16546 11.0655 9.45967 10.8558L9.53033 10.7986L14.7803 5.98614L14.8114 5.95591L14.8527 5.90927L14.9065 5.83279L14.9466 5.75529L14.9731 5.68287L14.9948 5.58119L15 5.5L14.9979 5.44827L14.9848 5.362L14.9627 5.2854L14.9297 5.20904L14.8905 5.14201L14.8352 5.07L14.7803 5.01386L9.53033 0.201364C9.23744 -0.0671211 8.76256 -0.0671211 8.46967 0.201364C8.19931 0.449196 8.17851 0.839169 8.40728 1.10887L8.46967 1.17364L12.438 4.8125L0.75 4.8125C0.335785 4.8125 -4.39655e-07 5.1203 -4.72849e-07 5.5C-5.06043e-07 5.8797 0.335785 6.1875 0.749999 6.1875L12.4395 6.1875L8.46967 9.82636C8.19931 10.0742 8.17851 10.4642 8.40728 10.7339L8.46967 10.7986L8.40728 10.7339Z" fill="#4885EB"/>
</svg>
