<svg width="19" height="15" viewBox="0 0 19 15" fill="none" xmlns="http://www.w3.org/2000/svg">
<path fill-rule="evenodd" clip-rule="evenodd" d="M10.6492 14.6371L10.7282 14.7254C11.0707 15.0634 11.6096 15.0894 11.9823 14.8034L12.0718 14.7254L18.7218 8.16291L18.7611 8.1217L18.8135 8.0581L18.8816 7.95381L18.9323 7.84813L18.9659 7.74937L18.9934 7.61072L19 7.5L18.9974 7.42947L18.9808 7.31182L18.9527 7.20737L18.911 7.10323L18.8613 7.01184L18.7913 6.91364L18.7218 6.83709L12.0718 0.274589C11.7008 -0.0915276 11.0992 -0.0915277 10.7282 0.274589C10.3858 0.612542 10.3594 1.14432 10.6492 1.5121L10.7282 1.60042L15.7548 6.5625L0.950002 6.5625C0.42533 6.5625 7.00935e-07 6.98223 6.55671e-07 7.5C6.10406e-07 8.01777 0.42533 8.4375 0.950001 8.4375L15.7567 8.4375L10.7282 13.3996C10.3858 13.7375 10.3594 14.2693 10.6492 14.6371L10.7282 14.7254L10.6492 14.6371Z" fill="white"/>
</svg>
