<svg width="15" height="15" viewBox="0 0 15 15" fill="none" xmlns="http://www.w3.org/2000/svg">
<path d="M14.9915 11.8366C14.9557 11.6154 14.8171 11.4264 14.6094 11.3142L11.5376 9.5043L11.5124 9.49015C11.3883 9.42651 11.2447 9.39372 11.0973 9.39372C10.8399 9.39372 10.5941 9.49123 10.4236 9.66223L9.51692 10.5693C9.47814 10.6062 9.35171 10.6595 9.31335 10.6614C9.30285 10.6606 8.25842 10.5854 6.33563 8.66236C4.41626 6.74343 4.33483 5.69579 4.33419 5.69579C4.33526 5.64221 4.38798 5.51621 4.42548 5.47721L5.19862 4.70428C5.47098 4.43128 5.55262 3.97871 5.39105 3.62814L3.68362 0.415341C3.55955 0.159912 3.31847 0.00219727 3.05104 0.00219727C2.86183 0.00219727 2.67926 0.0806261 2.53654 0.223127L0.429037 2.32592C0.226965 2.52692 0.0529644 2.87835 0.0150357 3.16121C-0.00339293 3.29642 -0.377323 6.524 4.04769 10.9497C7.80434 14.7059 10.7336 14.9977 11.5426 14.9977C11.7166 14.9977 11.8179 14.9853 11.8374 14.9825C12.1194 14.9448 12.4704 14.7712 12.6712 14.57L14.777 12.4644C14.9489 12.2917 15.0273 12.0635 14.9915 11.8366Z" fill="white"/>
</svg>
