<svg width="6" height="6" viewBox="0 0 6 6" fill="none" xmlns="http://www.w3.org/2000/svg">
<path d="M0.0868477 0.800413C0.142728 0.708657 0.223798 0.632457 0.321712 0.579658C0.419626 0.526858 0.530847 0.499366 0.643926 0.500011L5.35712 0.500011C5.47004 0.499978 5.58098 0.527715 5.67876 0.580428C5.77654 0.633142 5.85772 0.708971 5.91412 0.800281C5.97051 0.89159 6.00013 0.995156 6 1.10055C5.99987 1.20594 5.96998 1.30944 5.91336 1.40063L3.55676 5.20057L3.55697 5.20057C3.50049 5.29163 3.41934 5.36723 3.32168 5.41978C3.22401 5.47234 3.11326 5.5 3.00052 5.5C2.88779 5.5 2.77703 5.47234 2.67937 5.41978C2.5817 5.36723 2.50056 5.29163 2.44407 5.20057L0.087685 1.40063C0.0304145 1.30968 0.000147718 1.20612 3.84605e-07 1.10063C-0.000146472 0.995131 0.0298313 0.891504 0.0868477 0.800413Z" fill="white"/>
</svg>
