<svg width="6" height="5" viewBox="0 0 6 5" fill="none" xmlns="http://www.w3.org/2000/svg">
<path d="M0.0868477 0.300413C0.142728 0.208657 0.223798 0.132457 0.321712 0.0796575C0.419626 0.0268578 0.530847 -0.000634195 0.643926 1.09758e-05L5.35712 1.13879e-05C5.47004 -2.19808e-05 5.58098 0.0277147 5.67876 0.0804281C5.77654 0.133142 5.85772 0.208971 5.91412 0.300281C5.97051 0.39159 6.00013 0.495156 6 0.60055C5.99987 0.705944 5.96998 0.809445 5.91336 0.90063L3.55676 4.70057L3.55697 4.70057C3.50049 4.79163 3.41934 4.86723 3.32168 4.91978C3.22401 4.97234 3.11326 5 3.00052 5C2.88779 5 2.77703 4.97234 2.67937 4.91978C2.5817 4.86723 2.50056 4.79163 2.44407 4.70057L0.087685 0.90063C0.0304145 0.809678 0.000147718 0.706124 3.84605e-07 0.600627C-0.000146472 0.495131 0.0298313 0.391504 0.0868477 0.300413Z" fill="#4885EB"/>
</svg>
