<svg width="6" height="5" viewBox="0 0 6 5" fill="none" xmlns="http://www.w3.org/2000/svg">
<path d="M5.91315 4.69959C5.85727 4.79134 5.7762 4.86754 5.67829 4.92034C5.58037 4.97314 5.46915 5.00063 5.35607 4.99999H0.642882C0.52996 5.00002 0.419022 4.97229 0.321239 4.91957C0.223456 4.86686 0.14228 4.79103 0.0858851 4.69972C0.0294904 4.60841 -0.000132104 4.50484 4.42863e-07 4.39945C0.00013299 4.29406 0.030016 4.19056 0.0866402 4.09937L2.44324 0.299425H2.44303C2.49951 0.208367 2.58066 0.132771 2.67832 0.0802175C2.77599 0.0276639 2.88674 0 2.99948 0C3.11221 0 3.22297 0.0276639 3.32063 0.0802175C3.4183 0.132771 3.49944 0.208367 3.55593 0.299425L5.91232 4.09937C5.96959 4.19032 5.99985 4.29388 6 4.39937C6.00015 4.50487 5.97017 4.6085 5.91315 4.69959Z" fill="#575757"/>
</svg>
